<svg width="1920" height="496" viewBox="0 0 1920 496" fill="none" xmlns="http://www.w3.org/2000/svg">
<g clip-path="url(#clip0_464_1152)">
<path d="M11.2611 382.384L474.201 374.767C538.885 373.533 608.375 368.414 671.758 356.486L759.012 339.728C892.362 313.829 991.14 255.939 1114.61 187.384C1192.17 144.316 1266.88 102.254 1351.68 73.1253C1478.33 29.631 1606.79 1.52344 1741.87 1.52344H1919.67V499.239H-1.23438V382.384H11.2611Z" fill="url(#paint0_linear_464_1152)" fill-opacity="0.5"/>
<path d="M11.6064 382.384L474.102 372.055L474.168 375.102L11.6064 382.384Z" fill="#C1D839"/>
<path d="M668 492.438V496H665V492.438H668ZM668 485.386H665V478.334H668V485.386ZM668 471.282H665V464.231H668V471.282ZM668 457.197H665V450.145H668V457.197ZM668 443.093H665V436.041H668V443.093ZM668 429.007H665V421.955H668V429.007ZM668 414.904H665V407.852H668V414.904ZM668 400.818H665V393.766H668V400.818ZM668 386.714H665V379.662H668V386.714ZM668 372.628H665V365.576H668V372.628ZM668 358.525H665V354.962H668V358.525Z" fill="url(#paint1_linear_464_1152)"/>
<path d="M1255 492.828V496H1252V492.828H1255ZM1255 486.546H1252V480.266H1255V486.546ZM1255 473.968H1252V467.688H1255V473.968ZM1255 461.407H1252V455.126H1255V461.407ZM1255 448.829H1252V442.548H1255V448.829ZM1255 436.268H1252V429.987H1255V436.268ZM1255 423.69H1252V417.409H1255V423.69ZM1255 411.128H1252V404.847H1255V411.128ZM1255 398.55H1252V392.27H1255V398.55ZM1255 385.973H1252V379.692H1255V385.973ZM1255 373.411H1252V367.13H1255V373.411ZM1255 360.833H1252V354.552H1255V360.833ZM1255 348.272H1252V341.991H1255V348.272ZM1255 335.694H1252V329.413H1255V335.694ZM1255 323.132H1252V316.852H1255V323.132ZM1255 310.554H1252V304.274H1255V310.554ZM1255 297.993H1252V291.712H1255V297.993ZM1255 285.415H1252V279.134H1255V285.415ZM1255 272.837H1252V266.557H1255V272.837ZM1255 260.276H1252V253.995H1255V260.276ZM1255 247.698H1252V241.417H1255V247.698ZM1255 235.136H1252V228.856H1255V235.136ZM1255 222.559H1252V216.278H1255V222.559ZM1255 209.997H1252V203.716H1255V209.997ZM1255 197.419H1252V191.138H1255V197.419ZM1255 184.858H1252V178.577H1255V184.858ZM1255 172.28H1252V165.999H1255V172.28ZM1255 159.703H1252V153.421H1255V159.703ZM1255 147.141H1252V140.86H1255V147.141ZM1255 134.563H1252V128.282H1255V134.563ZM1255 122.001H1252V118.828H1255V122.001Z" fill="url(#paint2_linear_464_1152)"/>
<path d="M474.135 373.533C588.964 370.517 705.802 357.4 815.282 324.036C916.332 293.248 1009.05 246.265 1099.57 195.168C1149.71 166.878 1200.06 138.527 1252.62 114.197C1354.51 67.0162 1463.41 31.7485 1576.12 15.0668C1605.11 10.7706 1634.32 7.72376 1663.62 6.0175C1676.76 5.25578 1689.91 4.70734 1703.08 4.38741C1775.36 2.58975 1847.63 1.53857 1920 1.53857" stroke="#C1D839" stroke-width="3.2926" stroke-miterlimit="10"/>
</g>
<defs>
<linearGradient id="paint0_linear_464_1152" x1="959.218" y1="497.663" x2="959.218" y2="-50.685" gradientUnits="userSpaceOnUse">
<stop stop-color="#E0F594" stop-opacity="0.1"/>
<stop offset="0.364983" stop-color="#E0F594" stop-opacity="0.55"/>
<stop offset="0.683085" stop-color="#E0F594"/>
<stop offset="0.884549" stop-color="#D1E767"/>
<stop offset="1" stop-color="#C1D839"/>
</linearGradient>
<linearGradient id="paint1_linear_464_1152" x1="666.5" y1="28.4596" x2="666.5" y2="530.175" gradientUnits="userSpaceOnUse">
<stop stop-color="#C1D839"/>
<stop offset="1" stop-color="#E0F594" stop-opacity="0.2"/>
</linearGradient>
<linearGradient id="paint2_linear_464_1152" x1="1253.5" y1="80.9676" x2="1253.5" y2="526.335" gradientUnits="userSpaceOnUse">
<stop stop-color="#C1D839"/>
<stop offset="1" stop-color="#E0F594" stop-opacity="0.3"/>
</linearGradient>
<clipPath id="clip0_464_1152">
<rect width="1921" height="496" fill="white" transform="translate(-1)"/>
</clipPath>
</defs>
</svg>
